Coordinates
version=1
nRows=14
nColumns=40
inDegrees=yes

Units are S.I. units (second, meters, Newtons, ...)
Angles are in degrees.

endheader
time	pelvis_tilt	pelvis_list	pelvis_rotation	pelvis_tx	pelvis_ty	pelvis_tz	hip_flexion_r	hip_adduction_r	hip_rotation_r	knee_angle_r	knee_angle_r_beta	ankle_angle_r	subtalar_angle_r	mtp_angle_r	hip_flexion_l	hip_adduction_l	hip_rotation_l	knee_angle_l	knee_angle_l_beta	ankle_angle_l	subtalar_angle_l	mtp_angle_l	lumbar_extension	lumbar_bending	lumbar_rotation	arm_flex_r	arm_add_r	arm_rot_r	elbow_flex_r	pro_sup_r	wrist_flex_r	wrist_dev_r	arm_flex_l	arm_add_l	arm_rot_l	elbow_flex_l	pro_sup_l	wrist_flex_l	wrist_dev_l
     52.19000000	     -9.84712664	     -5.95575726	     -2.56605548	      1.08158109	      0.92834025	      0.53208520	     17.51091835	      3.97414205	    -16.47169596	     11.12979901	     11.12979901	      4.26087424	      7.28331443	     -3.42800212	     38.06726936	    -14.36527026	      6.20794310	     74.09244887	     74.09244887	      3.58465762	    -17.00286378	      6.06197107	    -13.51001984	      3.27785035	      3.96349093	     21.22521465	    -20.38055980	      3.28515036	     56.82122833	     45.58117067	      0.00000000	      0.00000000	      0.33651458	     -7.30741616	     -9.47098431	     31.24707277	     45.62083639	      0.00000000	      0.00000000
     52.20164286	     -9.98598802	     -5.89119398	     -2.41462881	      1.07974159	      0.92860998	      0.53254276	     17.23895174	      3.88967447	    -16.55388671	     11.23477354	     11.23477354	      4.63506553	      7.31150536	     -3.56703726	     39.63607704	    -14.04224330	      6.51693094	     73.12223053	     73.12223053	      3.93780345	    -17.11592462	      6.10181939	    -13.59967912	      3.17189513	      3.79718367	     23.38291585	    -20.40890975	      3.08567854	     58.12121560	     45.55247887	      0.00000000	      0.00000000	     -0.40645593	     -7.20630287	     -9.32275744	     30.51356759	     45.59973696	      0.00000000	      0.00000000
     52.21328571	    -10.09206071	     -5.84618382	     -2.26045609	      1.07796099	      0.92889346	      0.53298086	     16.88898461	      3.84799736	    -16.55168422	     11.24665207	     11.24665207	      5.00874492	      7.24779389	     -3.58295645	     41.02859700	    -13.73394631	      6.79759129	     71.92675808	     71.92675808	      4.22875474	    -17.23405915	      6.25309240	    -13.71869882	      3.09361461	      3.71094982	     25.48448910	    -20.47786904	      2.93799108	     59.45953551	     45.52068294	      0.00000000	      0.00000000	     -1.14114715	     -7.10322780	     -9.14555589	     29.92742624	     45.57218292	      0.00000000	      0.00000000
     52.22492857	    -10.22278477	     -5.77910199	     -2.13323674	      1.07626260	      0.92909896	      0.53336910	     16.54418065	      3.79845612	    -16.51301563	     11.21039965	     11.21039965	      5.35980982	      7.18906040	     -3.62836342	     42.27476814	    -13.47123791	      6.94771066	     70.45584456	     70.45584456	      4.50864644	    -17.18537805	      6.39401893	    -13.78649689	      2.97834713	      4.02528790	     27.39730984	    -20.89620182	      2.68560002	     60.35132150	     45.50868840	      0.00000000	      0.00000000	     -1.72542527	     -6.95296669	     -9.05166710	     29.61309096	     45.55223221	      0.00000000	      0.00000000
     52.23657143	    -10.32432860	     -5.71206927	     -1.91556427	      1.07466059	      0.92923862	      0.53354981	     16.16405500	      3.72180117	    -16.54323199	     11.17908867	     11.17908867	      5.81785165	      7.10334860	     -3.40149985	     43.33413651	    -13.09000288	      7.17910246	     68.67074451	     68.67074451	      4.80885082	    -17.28525353	      7.02638233	    -13.90583054	      2.92176146	      3.47659955	     29.44827609	    -20.60606854	      2.78256566	     62.31718866	     45.44535664	      0.00000000	      0.00000000	     -2.63339141	     -6.96226633	     -8.63815092	     28.99368061	     45.49105473	      0.00000000	      0.00000000
     52.24821429	    -10.43073484	     -5.65743136	     -1.71083038	      1.07316278	      0.92929393	      0.53355914	     15.75594979	      3.65698859	    -16.57358975	     11.09231693	     11.09231693	      6.29049405	      7.09080011	     -3.19999372	     44.20986396	    -12.76480937	      7.32196285	     66.52466407	     66.52466407	      5.11824868	    -17.23775604	      7.66681738	    -13.97459047	      2.87471820	      3.43337117	     31.23875884	    -20.75782982	      2.77191353	     63.83548876	     45.40123160	      0.00000000	      0.00000000	     -3.32717960	     -6.90946448	     -8.21602520	     28.75349484	     45.43036208	      0.00000000	      0.00000000
     52.25985714	    -10.52638393	     -5.57830534	     -1.48415731	      1.07177968	      0.92924403	      0.53338271	     15.30011514	      3.56201532	    -16.59769198	     10.94345941	     10.94345941	      6.71880317	      7.07534267	     -3.11564065	     44.85896954	    -12.42138571	      7.39366889	     63.96684245	     63.96684245	      5.35018115	    -17.17189188	      8.15201227	    -14.02471939	      2.81520251	      3.42505122	     32.94743072	    -20.86800997	      2.62615718	     65.19608827	     45.36798112	      0.00000000	      0.00000000	     -3.96013834	     -6.85021394	     -7.91972856	     28.59680111	     45.38422277	      0.00000000	      0.00000000
     52.27150000	    -10.72514206	     -5.54195397	     -1.23712252	      1.07045867	      0.92885525	      0.53303792	     14.95038196	      3.50226688	    -16.65139558	     10.79662326	     10.79662326	      7.13191089	      7.01146199	     -3.18565889	     45.46166897	    -12.18195872	      7.36683144	     61.04402245	     61.04402245	      5.58060517	    -16.81506550	      8.47090241	    -13.87689113	      2.82588252	      3.62249623	     34.58132808	    -21.19338226	      2.37650299	     66.09919566	     45.35415128	      0.00000000	      0.00000000	     -4.43265224	     -6.73456781	     -7.81669567	     28.49406755	     45.36338256	      0.00000000	      0.00000000
     52.28314286	    -10.78089242	     -5.48569673	     -0.92244743	      1.06942181	      0.92867103	      0.53242491	     14.29842167	      3.42853070	    -16.80144821	     10.41090010	     10.41090010	      7.57029879	      7.15375470	     -3.06473992	     45.61758865	    -11.81447983	      7.39658682	     57.62556134	     57.62556134	      5.72720978	    -16.68222466	      8.79803072	    -13.92608842	      2.84221848	      3.18932007	     36.02619915	    -20.87782381	      2.30166955	     68.37350289	     45.28694075	      0.00000000	      0.00000000	     -5.25400402	     -6.75489196	     -7.48203531	     28.55165174	     45.30878227	      0.00000000	      0.00000000
     52.29478571	    -11.02660962	     -5.59080055	     -0.63452685	      1.06834970	      0.92791169	      0.53176451	     13.99189852	      3.49269534	    -16.94641929	     10.29590174	     10.29590174	      7.97782218	      7.06005131	     -3.19997082	     45.88446767	    -11.70193588	      7.36188854	     53.97083901	     53.97083901	      6.04516977	    -15.97656095	      9.10552332	    -13.61445212	      3.03853940	      3.45113573	     37.36448677	    -21.17094091	      2.08602289	     69.14419478	     45.27504898	      0.00000000	      0.00000000	     -5.65801278	     -6.65468097	     -7.42882591	     28.53850145	     45.29572364	      0.00000000	      0.00000000
     52.30642857	    -11.07033362	     -5.54971714	     -0.25751090	      1.06761802	      0.92747742	      0.53072993	     13.10909760	      3.45442029	    -17.25011359	      9.53333627	      9.53333627	      8.38674252	      7.50222463	     -3.09692178	     45.60342158	    -11.37304813	      7.22254485	     49.82461679	     49.82461679	      5.90855300	    -15.60428832	      8.82035662	    -13.71589879	      3.14254183	      2.98410211	     38.38335130	    -20.95286196	      1.94363551	     72.83368078	     45.16425974	      0.00000000	      0.00000000	     -6.57852733	     -6.69241535	     -7.06656644	     29.26583891	     45.24200900	      0.00000000	      0.00000000
     52.31807143	    -11.19690550	     -5.52327420	      0.01103725	      1.06705749	      0.92675713	      0.52974114	     12.47852417	      3.40731447	    -17.37008365	      9.12051506	      9.12051506	      8.78093563	      7.71464415	     -3.21816094	     45.15186388	    -11.18904508	      6.87282701	     45.37248997	     45.37248997	      5.81108036	    -14.83300819	      8.05896360	    -13.56732895	      3.15660785	      3.42875578	     38.83858402	    -21.45920222	      1.47907945	     75.66710337	     45.09739182	      0.00000000	      0.00000000	     -7.09264961	     -6.76597839	     -6.53431155	     30.11847957	     45.18970158	      0.00000000	      0.00000000
     52.32971429	    -11.40337046	     -5.65029458	      0.31314439	      1.06647566	      0.92570639	      0.52856779	     12.01542172	      3.49471170	    -17.49911694	      8.86372077	      8.86372077	      9.19979580	      7.65226984	     -3.40160099	     44.76792497	    -11.09453828	      6.57039627	     40.97516479	     40.97516479	      6.07169105	    -13.72888656	      8.54932784	    -13.21527352	      3.40809131	      3.53417570	     40.06690148	    -21.50727297	      1.30036270	     76.54878283	     45.08092453	      0.00000000	      0.00000000	     -7.38554430	     -6.69810065	     -6.47587159	     30.08997498	     45.18102319	      0.00000000	      0.00000000
     52.34135714	    -11.40274006	     -5.62492229	      0.57251443	      1.06636452	      0.92497176	      0.52727089	     11.09826957	      3.48221802	    -17.55451408	      8.21569983	      8.21569983	      9.54726093	      7.85913930	     -3.54121467	     43.86727414	    -10.92186179	      5.93395767	     36.41227315	     36.41227315	      6.27136737	    -12.57671447	      9.08019065	    -13.10810517	      3.45947817	      3.31371619	     41.06987255	    -21.09776667	      1.24919980	     78.34862126	     45.03014091	      0.00000000	      0.00000000	     -7.87428549	     -6.74093221	     -6.44175169	     30.12408305	     45.17667088	      0.00000000	      0.00000000
